<svg width="130" height="120" viewBox="0 0 130 120" fill="none" xmlns="http://www.w3.org/2000/svg">
<rect x="29.9688" y="40.4531" width="71.4468" height="39.7803" rx="7" stroke="white" stroke-width="6"/>
<line y1="-3" x2="71.4985" y2="-3" transform="matrix(0.999939 0.011083 -0.0101383 0.999949 29.8125 62.0391)" stroke="white" stroke-width="6"/>
<path d="M58.7734 49.9395L91.9649 49.9395" stroke="white" stroke-width="5" stroke-linecap="round"/>
<path d="M36.6484 49.9395H37.3399" stroke="white" stroke-width="5" stroke-linecap="round"/>
<path d="M35.9531 71.4453H36.6446" stroke="white" stroke-width="5" stroke-linecap="round"/>
<path d="M58.7734 71.4453L91.9649 71.4453" stroke="white" stroke-width="4" stroke-linecap="round"/>
<line y1="-3" x2="23.7738" y2="-3" transform="matrix(-0.0107458 -0.999942 0.999931 -0.011747 67.7031 38.7949)" stroke="white" stroke-width="6"/>
<line y1="-3" x2="14.8617" y2="-3" transform="matrix(0.999995 -0.00314497 0.00312548 0.999995 101.312 50.6855)" stroke="white" stroke-width="6"/>
<line y1="-3" x2="14.8616" y2="-3" transform="matrix(0.999998 0.00191433 -0.00190247 0.999998 101.312 74.1914)" stroke="white" stroke-width="6"/>
<line y1="-3" x2="16.4223" y2="-3" transform="matrix(-0.999914 0.0130998 0.0119832 0.999928 30.25 73.5234)" stroke="white" stroke-width="6"/>
<line y1="-3" x2="16.4223" y2="-3" transform="matrix(-0.999914 0.0130998 0.0119832 0.999928 30.25 50.6387)" stroke="white" stroke-width="6"/>
<line y1="-3" x2="23.7738" y2="-3" transform="matrix(-0.0107458 0.999942 0.999931 0.011747 67.7031 81.3242)" stroke="white" stroke-width="6"/>
<path d="M95.2054 98.1801C95.2301 99.8368 93.9072 101.202 92.2506 101.229C90.5939 101.256 89.2309 99.9348 89.2062 98.2782L95.2054 98.1801ZM94.9527 81.2752L95.2054 98.1801L89.2062 98.2782L88.9535 81.3732L94.9527 81.2752Z" fill="white"/>
<path d="M95.2054 22.2027C95.2301 20.546 93.9072 19.1811 92.2506 19.154C90.5939 19.1269 89.2309 20.448 89.2062 22.1047L95.2054 22.2027ZM94.9527 39.1076L95.2054 22.2027L89.2062 22.1047L88.9535 39.0096L94.9527 39.1076Z" fill="white"/>
<path d="M35.6356 21.9357C35.609 20.279 36.9305 18.9156 38.5872 18.8904C40.2438 18.8651 41.6083 20.1877 41.6349 21.8443L35.6356 21.9357ZM35.9066 38.8406L35.6356 21.9357L41.6349 21.8443L41.9059 38.7492L35.9066 38.8406Z" fill="white"/>
<path d="M35.6356 100.295C35.609 101.951 36.9305 103.315 38.5872 103.34C40.2438 103.365 41.6083 102.043 41.6349 100.386L35.6356 100.295ZM35.9066 83.3899L35.6356 100.295L41.6349 100.386L41.9059 83.4812L35.9066 83.3899Z" fill="white"/>
<path d="M93.3541 95.498C91.6972 95.498 90.3541 96.8412 90.3541 98.498C90.3541 100.155 91.6972 101.498 93.3541 101.498V95.498ZM105.109 95.498H93.3541V101.498H105.109V95.498Z" fill="white"/>
<path d="M92.6586 18.5039C91.0017 18.5039 89.6586 19.8471 89.6586 21.5039C89.6586 23.1608 91.0017 24.5039 92.6586 24.5039L92.6586 18.5039ZM105.797 18.5039L92.6586 18.5039L92.6586 24.5039L105.797 24.5039L105.797 18.5039Z" fill="white"/>
<path d="M37.5606 24.8149C39.2159 24.7428 40.5043 23.3422 40.4383 21.6867C40.3723 20.0312 38.977 18.7475 37.3217 18.8196L37.5606 24.8149ZM22.8304 25.4566L37.5606 24.8149L37.3217 18.8196L22.5915 19.4614L22.8304 25.4566Z" fill="white"/>
<path d="M37.3217 103.745C38.977 103.817 40.3723 102.533 40.4383 100.878C40.5043 99.2222 39.2159 97.8217 37.5606 97.7496L37.3217 103.745ZM22.5915 103.103L37.3217 103.745L37.5606 97.7496L22.8304 97.1078L22.5915 103.103Z" fill="white"/>
<path d="M54.1719 27.0499C54.1719 25.393 52.8287 24.0499 51.1719 24.0499C49.515 24.0499 48.1719 25.393 48.1719 27.0499H54.1719ZM54.1719 38.8418V27.0499H48.1719V38.8418H54.1719Z" fill="white"/>
<path d="M81.8281 27.0499C81.8281 25.393 80.485 24.0499 78.8281 24.0499C77.1713 24.0499 75.8281 25.393 75.8281 27.0499H81.8281ZM81.8281 38.8418V27.0499H75.8281V38.8418H81.8281Z" fill="white"/>
<path d="M81.8281 95.0321C81.8281 96.689 80.485 98.0321 78.8281 98.0321C77.1713 98.0321 75.8281 96.689 75.8281 95.0321H81.8281ZM81.8281 83.2402V95.0321H75.8281V83.2402H81.8281Z" fill="white"/>
<path d="M81.8281 94.3349C81.8281 95.9917 80.485 97.3349 78.8281 97.3349C77.1713 97.3349 75.8281 95.9917 75.8281 94.3349H81.8281ZM81.8281 82.543V94.3349H75.8281V82.543H81.8281Z" fill="white"/>
<path d="M54.1719 95.0321C54.1719 96.689 52.8287 98.0321 51.1719 98.0321C49.515 98.0321 48.1719 96.689 48.1719 95.0321H54.1719ZM54.1719 83.2402V95.0321H48.1719V83.2402H54.1719Z" fill="white"/>
</svg>
