<svg xmlns="http://www.w3.org/2000/svg" width="52.298" height="52.298" viewBox="0 0 52.298 52.298">
  <g id="Grupo_159960" data-name="Grupo 159960" transform="translate(-1662.702 -8069.066)">
    <rect id="Retângulo_147515" data-name="Retângulo 147515" width="52.298" height="52.298" rx="7.649" transform="translate(1715 8069.066) rotate(90)" fill="#fff"/>
    <path id="Caminho_9" data-name="Caminho 9" d="M506.33-27.787a6.279,6.279,0,0,0-6.279-6.279H484a6.278,6.278,0,0,0-6.279,6.279v7.472A6.278,6.278,0,0,0,484-14.036h16.056a6.279,6.279,0,0,0,6.279-6.279Zm-9.443,4.3-7.2,3.562c-.283.154-1.241-.052-1.241-.372v-7.313c0-.324.966-.529,1.248-.368l6.892,3.75C496.877-24.067,497.179-23.649,496.888-23.491Z" transform="translate(1196.521 8119.199)" fill="#004b8d"/>
  </g>
</svg>
